<svg xmlns="http://www.w3.org/2000/svg" width="717.5" height="1200" viewBox="0 0 574.000000 960.000000"><g transform="matrix(.1 0 0-.1 0 960)"><path d="m1706 9149c-114-19-228-74-293-141-67-69-125-244-144-433-17-166 27-626 67-710 42-89 146-155 254-162 52-3 84-13 162-51 53-26 97-51 97-57 0-5-23-24-52-42-29-17-87-59-130-94l-78-62-78 24-78 24-37 72c-45 86-119 159-173 169-60 11-432-3-488-19-67-19-145-59-174-91-20-21-34-26-72-26-46 0-50-2-79-45-96-139-143-309-143-520-1-199 33-373 111-574l37-93 93-61c83-54 92-63 92-91 0-86 66-289 145-446 50-101 52-107 44-160-18-127-7-731 21-1105 5-71 14-377 21-680 8-423 14-553 24-565 10-11 15-106 20-395 7-437 21-802 35-960 5-60 14-312 20-558 5-247 15-510 20-585 6-75 12-166 15-202l4-65 56-5c31-3 58-3 59 0 8 19-17 816-30 950-8 91-22 410-30 710-7 300-18 583-24 630-5 47-14 279-19 515-12 507-19 693-32 795-5 41-14 280-19 530-9 469-21 616-60 786-25 104-25 104 0 104 12 0 21-8 24-22 16-77 36-208 36-235 0-43 41-64 132-71 98-7 153 11 209 70l46 48 41-88c80-170 101-254 109-434 5-119 3-149-16-231-12-53-39-131-60-174-21-44-42-97-45-119-7-43 13-129 60-256l29-78-51-152-51-152 37-40 37-41-39-165c-22-91-53-212-68-270-44-159-54-238-54-435-1-171 24-580 44-730 5-39 25-122 46-185 46-145 50-225 14-290-21-40-25-60-28-182-3-123-1-148 23-244 15-59 45-148 67-198 36-82 39-94 28-121-7-16-14-77-17-134-5-96-4-104 11-98 10 4 33 7 52 7h34v103c1 56 5 121 9 144 7 37 5 47-16 75-101 135-132 340-84 558 29 134 56 223 68 227 5 2 33-34 61-80 45-74 57-87 99-105 119-51 224-54 293-8 139 92 197 365 115 543-34 74-49 70-40-12 7-71-4-397-14-414-10-16-179-25-226-12-61 16-136 71-171 123-18 26-51 97-75 159l-43 112-42-46c-23-26-44-47-47-47-3 0-8 39-12 88-17 216-46 529-51 544-9 30 14 29 68-1 68-38 218-86 333-106 50-9 164-18 255-22 154-6 168-5 205 15 49 25 112 78 104 86-4 4-55 2-115-4-195-18-462 14-634 75-103 38-206 91-214 110-11 29-6 155 10 264 8 58 37 192 64 296 77 297 82 327 68 396-16 76 1 178 44 271l30 67-39 93c-22 51-52 125-67 163l-26 71 60 129c33 72 60 136 60 143 0 7-13 12-30 12-20 0-30 5-30 15 0 17 52 105 62 105 3 0 33-29 65-64l58-63 95-21c111-25 148-31 454-73 296-40 436-38 656 10 267 59 274 62 362 151 42 43 79 75 82 72 3-3 6-21 6-39 0-51 24-89 121-188 52-53 96-109 108-135 37-84 67-371 74-698l3-172-33 6-33 6v-78c0-87 21-230 45-311 30-101 74-329 77-403l3-75-131-65c-72-36-216-94-320-130l-189-65h-130c-108 1-149 5-245 29-63 16-132 35-153 44-21 8-40 12-43 9-3-3 10-45 29-94 49-122 57-179 47-302-10-116-1-279 30-519 11-84 20-155 20-156 0-2 18-15 39-29 37-25 40-31 60-119 11-51 28-149 36-218 19-151 44-260 84-360 28-72 31-75 68-82 21-3 42-3 46 1 4 4-11 73-33 152-25 86-43 177-47 225l-6 81 39 44c21 24 63 70 93 102l55 57-14 41c-15 41-17 42-95 64-173 50-174 51-207 135-105 262-132 519-75 734l13 49 159 2c172 2 286 20 453 71 97 29 259 94 310 125 18 10 38 19 44 19 7 0 9-126 5-402-4-377-6-413-30-553-21-123-28-203-35-440-9-280-6-353 18-455 12-48 12-48 58-52 26-3 50-2 54 1 4 3 1 32-7 64-17 71-32 250-40 467-6 155-5 176 24 340 65 371 74 472 76 786l2 292 36 44 36 44-24 66c-13 36-42 166-64 287-23 122-50 247-62 279-32 88-33 117-3 242 19 84 27 143 28 220 1 156-31 598-48 653-17 57-46 96-144 197-92 93-113 135-143 280-19 94-23 146-23 285 0 172 9 243 45 370 33 114 83 245 95 245 6 0 21-25 33-56 62-163 236-341 549-563l103-72 75 40c42 23 102 61 134 86 32 25 63 45 68 45 6 0 7-14 1-37-5-21-43-310-84-643-41-333-82-657-90-720-8-63-37-315-65-560-28-245-53-458-55-475-3-16-19-145-35-285-120-1047-205-1757-221-1844-6-32-8-63-6-70 3-7 31-10 83-8l79 3 39 317c76 633 95 793 131 1102 19 173 40 347 46 385 10 73 34 269 119 1000 28 237 61 518 75 625 13 107 38 312 55 455 17 143 45 370 62 505 23 175 32 292 33 407l2 163 62 113c94 173 220 461 247 563 1 7 33 22 71 34 100 32 160 70 239 152 83 85 129 170 167 303 56 201 90 555 67 700-12 79-54 180-70 170-6-3-18-23-27-43-17-39-19-106-13-407 3-116 0-169-14-233-48-227-137-392-295-546-33-33-63-58-65-55-3 3-13 41-22 84-10 44-19 82-20 84-12 15-39-36-65-123-103-343-113-367-263-636-48-85-115-214-151-286-67-138-125-214-205-269-50-35-25-47-258 133-253 196-275 220-363 399-40 81-114 213-164 293-133 210-148 237-135 245 7 4 30-10 53-33 100-97 229-148 350-139 40 2 90 13 112 23l40 17-45 9c-192 36-325 102-505 249-38 31-96 84-129 118-32 34-61 60-63 57-3-3 20-83 51-178 66-201 146-373 206-441l43-48-26-52c-107-216-152-404-162-673-6-190-11-232-33-303-36-116-150-193-379-253-113-30-126-32-323-32-172 0-226 3-335 23-137 24-358 78-461 112l-61 20-6 215c-3 127-10 221-16 227-19 19-24-45-18-249 7-223 5-228-49-157-41 54-53 112-60 292-4 91-12 184-19 206-6 22-37 76-67 121-99 144-132 264-131 474 0 109 5 170 21 244l21 100-64 120c-116 220-153 374-121 510 25 107 67 174 194 309 118 125 170 192 158 204-3 3-16-3-29-14-201-179-282-245-285-231-6 32 47 210 74 250 49 70 156 140 299 193 109 42 209 91 258 128 26 21 52 37 57 37 5 0 33-18 62-40 56-42 174-98 185-87 8 8-114 144-187 209-32 27-74 60-96 72-21 11-37 25-36 30 0 5 23 17 50 26 190 67 317 186 338 318 9 55-9 56-36 2-79-155-316-280-579-306-67-6-68-6-90 24-36 51-79 152-101 237-44 169-36 633 14 790 38 121 97 206 183 266l42 29h232c277 0 368-15 467-80 161-103 205-286 162-665-5-44-12-132-14-197-7-141 1-172 78-306 31-54 59-113 62-132 8-40 19-50 55-50 75 0 459-122 459-145 0-6-27-30-60-54-110-80-246-229-226-248 3-3 27 9 54 27 58 41 254 203 272 225 12 14 16 13 39-9 34-33 63-43 163-56 110-15 151-35 226-109 135-133 220-316 252-546 12-89 12-125 1-125-5 0-31 13-58 30-66 41-237 103-385 141l-123 31-42-22c-24-13-43-26-43-30 0-4 21-11 46-15 70-10 225-66 369-132 125-58 272-118 345-142 30-10 42-24 83-101 40-74 52-90 72-90 30 0 55 10 55 22 0 5-41 66-90 135-118 166-137 206-150 322-12 106-43 208-96 314-65 130-229 350-287 385-18 12-85 33-147 48-89 21-140 40-225 85-110 57-266 112-359 125-44 6-55 13-115 77-89 94-109 125-125 199-24 109-27 188-11 348 20 206 19 307-5 414-23 105-50 155-118 218-88 83-223 136-402 158-97 12-272 11-344-1m-508-1573c15-8 47-33 72-55 25-23 57-49 73-58 47-30 34-40-64-48-87-7-90-8-84-29 21-63 17-103-20-182-26-57-43-116-60-209-13-71-26-142-30-157-9-34-5-34 45-3 38 24 60 31 60 20 0-3-13-29-30-58-44-79-79-178-86-249-8-80 8-145 80-328 87-219 92-251 51-368-49-140-40-295 27-490 28-80 31-94 18-102-31-20-120-49-168-56l-49-6-6 78c-10 125-42 203-172 419-128 211-159 360-158 745 1 227 0 252-23 345-32 134-40 221-25 293 12 52 11 63-9 117-73 205-74 216-19 299 33 48 79 79 146 95 59 15 399 4 431-13m-655-172c3-3-17-71-44-151-27-80-48-147-47-149 5-5 117 12 124 18 3 4-2 20-11 37-8 17-11 31-6 31 11 0 61-69 61-83 0-4-39-33-86-64l-87-56 7-109c3-59 15-161 26-226 20-117 20-117 64-157 42-38 44-43 51-112 5-52 4-73-4-73-18 0-102 137-132 215-30 79-62 223-79 365l-12 95 47 185c26 102 50 197 52 213 5 23 10 27 37 27 18 0 35-3 39-6m867-26c-1-13-79-71-112-83-14-6-18-2-18 19 0 20 9 31 48 50 52 28 82 33 82 14m-806-543c28-128 40-294 23-311-10-11-36 6-60 38-20 27-56 228-57 318 0 51 23 93 48 88 13-2 24-35 46-133m2736-736c0-5-7-9-15-9-9 0-15 9-15 21 0 18 2 19 15 9 8-7 15-16 15-21m1214-865c10-27 7-85-14-214-12-68-36-260-55-425-35-308-99-842-134-1135-11-91-50-410-85-710-36-300-77-635-90-745-14-110-52-432-86-715-73-628-87-731-100-744-17-17-12 48 40 466 27 222 70 583 95 803 116 1020 252 2165 311 2624 35 278 64 526 64 553 0 29-8 65-20 88l-20 40 26 52c40 80 56 94 68 62m-854-2828c0-3-4-16-10-30-6-17-14-24-25-20-18 7-20 40-2 47 16 7 37 8 37 3m-1056-202c23-9 20-31-5-45-17-9-23-8-30 2-22 35-3 58 35 43m-1143-473l22-18-23-32-23-33-36 37c-35 35-35 37-17 51 26 19 49 18 77-5m-26-148c-24-17-35-17-35 0 0 20 9 25 32 19 20-5 20-6 3-19m1365-413c38-11 79-29 91-39l24-19-25-34c-41-57-107-128-119-128-12 0-14 9-36 125-16 87-18 115-9 115 4 0 37-9 74-20"/><path d="m4461 7594c-218-119-211-114-238-179-13-33-38-112-56-175-30-112-31-120-31-335-1-207 1-228 27-343 16-67 42-161 58-209 16-48 29-90 29-94 0-4-23-24-50-44-28-20-86-80-130-133-105-126-254-322-248-327 2-2 20 0 39 5 28 8 45 25 82 79 66 96 191 226 303 316 98 80 154 145 197 230 36 72 121 314 113 322-10 11-79-51-104-93-12-21-38-90-58-152-21-69-40-112-47-109-12 4-59 218-50 227 2 3 21 10 41 15 29 8 42 20 60 55 22 42 23 52 17 159-5 75-4 111 3 107 5-3 24-51 42-107 30-91 35-100 54-95 11 3 29 6 39 6 40 0 3 81-79 170l-57 61 8 212c5 117 9 253 9 302l1 90 292 3 292 2 65-67 66-68-8-50c-12-86-8-297 7-324 12-22 9-27-48-85l-61-62 21-21c31-31 11-34-51-7-95 41-98 38-79-76 6-36 16-121 22-190 11-115 14-125 33-128 19-3 22 3 27 66 4 37 16 95 27 127 26 74 96 215 127 252l22 28 1-30c0-52-19-207-36-284-16-72-19-78-95-157-43-45-84-95-89-109-12-32-3-95 14-95 11 0 150 145 197 204 33 42 68 121 85 192 13 54 17 123 19 314 1 209 4 252 19 293l18 48-26 37c-51 74-134 165-176 193-77 52-125 61-364 68l-219 6-76-41m-44-178c-48-125-83-354-92-601-3-93-9-181-11-195l-6-25-14 27c-19 37-52 176-60 259-6 61-9 69-32 77l-25 8 31 23c46 32 71 88 97 217 22 106 37 147 73 202 16 24 48 31 39 8m828-96c7-22-24-150-36-150-10 0-13 163-3 173 10 10 33-4 39-23"/><path d="m2420 7269c-118-12-299-47-338-66-18-9-44-30-57-47-40-54-84-135-76-140 5-3 45 26 90 65l81 70 123 21c91 15 174 21 325 23l204 2 19 32c11 18 17 36 14 42-7 11-267 10-385-2"/><path d="m1570 7243c-14-3-29-8-34-13-9-9 10-16 78-25 28-4 93-29 158-62 60-31 112-53 115-49 11 10-29 86-59 111-16 13-45 29-66 35-36 10-143 12-192 3"/><path d="m2905 6846c-43-18-93-79-101-121-3-20-4-38-2-41 3-2 39 16 79 41l75 46 88-26c49-14 91-23 94-20 9 9-88 103-124 120-39 18-69 19-109 1"/><path d="m2939 6548c-30-30-85-107-124-173-95-159-134-193-262-230-113-33-254-42-459-30l-126 7-31 47c-62 91-187 200-187 162 0-24 60-163 85-195 105-138 533-157 840-37 77 30 82 34 142 114 80 106 123 183 163 285 43 109 32 123-41 50"/><path d="m1550 6205c-30-8-72-14-94-15h-38l7-37c4-21 9-40 11-42 2-2 57 3 121 12 194 27 232 46 159 81-40 19-91 19-166 1"/><path d="m1581 5918c-48-25-52-30-72-98-8-24-37-77-66-118-29-40-53-75-53-78 0-2 6-4 14-4 19 0 108 97 141 155 39 69 54 85 81 85 33 0 39-34 19-110-18-70-16-108 16-255 35-159 100-322 174-434 14-21 33-79 46-136 21-100 51-175 69-175 6 0 10 48 10 119 0 132-3 140-103 301-56 90-121 250-137 340-25 135-12 286 32 373 11 22 17 41 14 44-3 3-36 8-73 10-57 4-75 1-112-19"/><path d="m1850 5935c0-4 32-37 72-74 39-36 86-86 104-111 29-40 48-52 165-105l132-61 15-69c22-113 67-209 130-276 57-62 112-100 112-78 0 7-29 62-64 123-35 61-67 129-71 151-11 64-56 144-105 187-41 37-170 108-195 108-5 0-36 29-68 65-36 40-82 78-120 99-66 36-107 52-107 41"/><path d="m2730 5932c0-6 14-45 30-87 17-42 30-77 30-79 0-2-44-33-97-69-121-82-160-113-151-123 14-13 196 84 246 131l49 45 107-7 106-6v31 32h-57c-74 0-145 32-213 96-27 26-50 42-50 36"/><path d="m2845 5588c-33-66-63-106-139-186-32-34-57-65-53-68 3-3 56 22 117 56l112 62 49-12c84-20 162 7 210 73 51 71 36 74-71 17-41-22-80-40-86-40-5 0-32 34-59 75-27 41-50 75-52 75-1 0-14-24-28-52"/><path d="m3294 2093c-8-65 8-281 31-418 22-129 25-139 36-128 5 5 10 95 11 204 1 169-2 206-21 286-29 118-47 136-57 56"/><path d="m2745 2051c-8-13 20-178 41-246 28-87 74-162 135-220 64-62 93-66 59-9-11 20-47 98-80 174-52 122-135 298-145 308-1 2-6-1-10-7"/><path d="m2302 1372c-32-59-49-135-67-296-13-110-26-169-62-280-40-122-47-153-47-226-1-125 4-135 56-134l43 1-3 94c-3 75 1 106 17 153 55 156 95 437 89 626l-3 105-23-43"/><path d="m1878 976c-130-96-164-180-139-344 6-39 11-73 11-76 0-3 4-6 8-6 5 0 12 46 15 101 6 89 9 105 32 133 98 119 160 216 153 237-2 6-38-15-80-45"/><path d="m3303 838c-17-18-45-56-61-84l-30-52 37-88c21-49 41-97 44-107 6-15 13-17 44-11 21 4 40 8 42 10 2 2-3 18-12 36-35 76-46 224-21 306 9 31-7 27-43-10"/></g></svg>